# Blender 5.0.1
# www.blender.org
mtllib leg_left.mtl
o NurbsPath015.002
v -0.557357 0.018991 -2.628468
v -0.313456 0.032161 -2.483994
v -0.282759 0.047029 -2.692042
v -0.245325 0.075027 -2.437502
v -0.255297 0.056570 -2.459948
v -0.219474 0.086837 -2.608353
v -0.452891 -0.015168 -2.612473
v -0.213795 5.810417 -2.192822
v -0.236590 5.837343 -2.402509
v -0.212287 5.843224 -2.192589
v -0.321322 6.602419 -2.101616
v -0.239852 6.812272 -2.058596
v -0.221638 6.790998 -1.994678
v -0.415306 0.294368 -2.508798
v -0.314161 0.205063 -2.691000
v -0.272698 0.268935 -2.569707
v -0.302141 0.269353 -2.519363
v -0.305192 0.287880 -2.500211
v -0.301683 0.199512 -2.658441
v -0.437217 0.270630 -2.480263
v -0.216651 1.325978 -3.290540
v -0.114156 1.099578 -2.986640
v -0.032209 1.250628 -3.230924
v -0.124384 1.044500 -2.976679
v -0.050618 1.760655 -3.041062
v -0.064796 1.537269 -3.070095
v -0.009934 1.864126 -3.106667
v -0.239577 2.356940 -2.803322
v -0.077127 2.111913 -2.885591
v -0.073048 2.633590 -2.778884
v -0.154813 2.833657 -2.291729
v -0.127686 2.640207 -2.478175
v -0.301868 3.298753 -1.549944
v -0.222928 3.103509 -1.841183
v -0.210409 3.389110 -1.039732
v -0.204893 3.434018 -0.977038
v -0.173521 3.796839 -0.732971
v -0.376610 3.604520 -0.971671
v -0.209204 3.937634 -0.724520
v -0.274446 4.130050 -0.851949
v -0.338196 4.366543 -0.786422
v -0.169982 4.482710 -0.805591
v -0.189576 4.812219 -1.097180
v -0.260055 4.657012 -1.296731
v -0.331584 4.804289 -1.140239
v -0.183731 4.891324 -1.353221
v -0.260559 5.067512 -2.644547
v -0.264401 5.058027 -2.556968
v -0.205984 4.970410 -2.569197
v -0.344791 4.865846 -2.496221
v -0.405124 5.040500 -2.547894
v -0.274777 4.673042 -2.791593
v -0.429216 4.074467 -2.736045
v -0.284106 4.415725 -2.810505
v -0.282929 4.254859 -2.622633
v -0.278747 4.037704 -2.743687
v -0.264078 3.868078 -2.659266
v -0.243741 3.821531 -2.591166
v -0.332581 4.010908 -2.508080
v -0.187795 3.838169 -2.487750
v -0.405876 3.816739 -2.479623
v -0.243635 3.979681 -2.510145
v -0.232413 3.961755 -2.474931
v -0.406804 3.892765 -2.680222
v -0.348297 3.991119 -2.499968
v -0.263752 4.155363 -2.623839
v -0.270605 4.362473 -2.646901
v -0.326940 4.384946 -2.820314
v -0.220866 4.771939 -2.692219
v -0.249380 4.829980 -2.562553
v -0.403615 4.951877 -2.684672
v -0.247968 4.873871 -2.524997
v -0.259645 5.189292 -2.489593
v -0.211914 5.059549 -2.346289
v -0.404893 5.054748 -2.439882
v -0.219569 5.109675 -2.307997
v -0.369535 6.685935 -2.225365
v -0.207892 6.780223 -2.222504
v -0.219525 5.825445 -2.252108
v -0.221323 6.729083 -2.203437
v -0.300978 6.809717 -2.389380
vn 0.0664 -0.9963 -0.0539
vn 0.0944 -0.9921 -0.0828
vn 0.0960 -0.9946 -0.0395
vn 0.7301 0.0345 -0.6825
vn 0.1420 0.1454 -0.9791
vn 0.9743 -0.0054 0.2250
vn 0.9933 0.0164 -0.1142
vn -0.9633 -0.0093 -0.2682
vn -0.0939 0.9042 0.4168
vn -0.6275 -0.0430 0.7775
vn 0.4325 -0.0399 0.9008
vn 0.5653 0.3130 -0.7632
vn -0.1689 -0.1459 0.9748
vn -0.2449 -0.8354 0.4921
vn 0.0457 -0.8967 0.4404
vn 0.0458 -0.8956 0.4425
vn -0.8482 0.3069 0.4316
vn -0.5769 0.0072 -0.8168
vn 0.1183 -0.6641 -0.7382
vn 0.2552 0.4336 0.8642
vn -0.6474 0.4171 0.6379
vn 0.9763 -0.1721 0.1312
vn 0.7995 -0.1940 -0.5684
vn 0.9480 -0.0205 0.3177
vn 0.9242 -0.0900 0.3713
vn 0.4388 0.1611 -0.8840
vn -0.9852 0.0280 -0.1693
vn 0.6824 -0.0659 0.7280
vn 0.5594 -0.4557 0.6924
vn 0.3784 0.7310 -0.5678
vn 0.4122 -0.7059 0.5759
vn 0.9804 -0.0341 0.1941
vn -0.8643 0.3226 -0.3858
vn 0.8274 0.5370 -0.1644
vn -0.6658 -0.6235 0.4098
vn 0.7294 0.1705 -0.6625
vn 0.9947 -0.1023 0.0040
vn -0.9060 0.2830 0.3146
vn -0.7598 -0.0360 0.6492
vn -0.4027 -0.4347 -0.8055
vn -0.5524 0.2041 0.8082
vn 0.9029 -0.2398 -0.3569
vn -0.1207 0.8272 0.5487
vn -0.0127 -0.8933 -0.4493
vn -0.7842 0.5580 0.2716
vn 0.9444 -0.3096 -0.1104
vn 0.9475 0.1797 -0.2644
vn -0.4087 -0.6320 0.6584
vn -0.7887 0.5863 -0.1852
vn 0.7957 0.5562 -0.2398
vn -0.5195 0.6609 -0.5417
vn 0.9794 -0.0426 -0.1974
vn -0.8264 -0.1435 -0.5445
vn 0.4360 0.0550 0.8983
vn -0.6800 0.1292 -0.7218
vn -0.2737 -0.9170 -0.2903
vn 0.9585 -0.0764 -0.2745
vn 0.9661 -0.0204 -0.2574
vn -0.2709 0.3292 0.9046
vn 0.6064 -0.4843 0.6306
vn -0.4061 -0.7175 0.5659
vn -0.0732 -0.6931 0.7171
vn -0.4672 0.5440 0.6969
vn 0.1949 0.6708 0.7156
vn -0.5701 -0.4061 -0.7142
vn 0.9845 0.1438 -0.1004
vn 0.2531 -0.1098 0.9612
vn 0.0351 -0.0783 -0.9963
vn 0.8359 0.1480 -0.5286
vn 0.8558 -0.3754 0.3558
vn -0.5465 0.4155 -0.7271
vn -0.9182 -0.0207 0.3956
vn 0.0991 -0.3464 0.9328
vn 0.4793 0.2770 -0.8328
vn 0.9808 0.0766 -0.1793
vn -0.4909 -0.2787 0.8255
vn -0.8906 0.0003 0.4548
vn 0.8881 0.0483 -0.4571
vn 0.9721 -0.0207 0.2336
vn 0.2905 0.1203 -0.9493
vn -0.1310 -0.0658 0.9892
vt 0.305381 0.000000
vt 0.444316 0.000000
vt 0.691963 0.000000
vt 0.000030 0.237024
vt 0.016066 0.360460
vt -0.000005 0.002746
vt 0.016187 0.001123
vt 0.000017 0.629348
vt 0.020876 0.682994
vt 0.000034 1.000144
vt 0.016102 1.003124
vt 0.022767 0.089488
vt 0.022770 0.924811
vt 0.273814 0.000000
vt 0.075577 0.000000
vt 0.843093 0.000000
vt 0.001107 0.725441
vt 0.020516 0.527915
vt 0.000110 0.286556
vt -0.000001 0.992525
vt 0.016090 0.965877
vt 0.000238 0.005650
vt 0.019622 0.287630
vt 0.015352 0.000000
vt 0.024092 0.000000
vt 0.028705 0.145156
vt 0.036884 0.715154
vt 0.027490 0.999232
vt 0.033275 0.000000
vt 0.039762 0.359091
vt 0.047021 0.998864
vt 0.042799 0.000000
vt 0.062839 0.468996
vt 0.055952 0.020467
vt 0.073478 0.982819
vt 0.085428 -0.008033
vt 0.074883 0.000000
vt 0.078637 0.617182
vt 0.088603 0.992994
vt 0.093426 0.474681
vt 0.099833 0.853698
vt 0.101715 0.004665
vt 0.111808 0.978298
vt 0.114619 0.394494
vt 0.112599 0.837608
vt 0.117577 0.000194
vt 0.163856 0.154735
vt 0.163353 0.450948
vt 0.162724 0.755419
vt 0.161502 0.000000
vt 0.165202 0.999943
vt 0.185765 0.005150
vt 0.217087 0.770259
vt 0.205461 0.284496
vt 0.198322 0.975737
vt 0.237664 0.999353
vt 0.245782 0.001470
vt 0.218341 0.000000
vt 0.235315 0.436205
vt 0.262622 0.254848
vt 0.254546 0.707194
vt 0.276752 1.000000
vt 0.274385 0.820658
vt 0.269632 0.000000
vt 0.284575 0.461286
vt 0.301444 0.019473
vt 0.313851 0.987502
vt 0.315400 0.377058
vt 0.336473 0.197590
vt 0.342801 0.000000
vt 0.344450 0.505170
vt 0.363160 0.678584
vt 0.346453 0.999559
vt 0.369214 0.326181
vt 0.368507 -0.005823
vt 0.370321 1.000252
vt 0.415297 0.679021
vt 0.418519 0.040669
vt 0.393136 0.000000
vt 0.419798 0.403993
vt 0.417329 0.978153
s 1
usemtl Material.002
f 3/1/1 2/2/2 1/3/3
f 6/4/4 9/5/5 5/6/6
f 9/5/5 10/7/7 5/6/6
f 7/8/8 9/5/5 6/4/4
f 7/8/8 11/9/9 9/5/5
f 4/10/10 11/9/9 7/8/8
f 4/10/10 8/11/11 11/9/9
f 9/5/5 13/12/12 10/7/7
f 9/5/5 11/9/9 13/12/12
f 8/11/11 12/13/13 11/9/9
f 15/14/14 16/15/15 14/16/16
f 20/17/17 21/18/18 19/19/19
f 17/20/20 22/21/21 20/17/17
f 18/22/22 23/23/23 24/24/24
f 19/19/19 23/23/23 18/22/22
f 19/19/19 21/18/18 23/23/23
f 20/17/17 22/21/21 21/18/18
f 23/23/23 26/25/25 24/24/24
f 23/23/23 27/26/26 26/25/25
f 22/21/21 28/27/27 21/18/18
f 25/28/28 28/27/27 22/21/21
f 27/26/26 29/29/29 26/25/25
f 23/23/23 30/30/30 27/26/26
f 21/18/18 30/30/30 23/23/23
f 21/18/18 28/27/27 30/30/30
f 25/28/28 31/31/31 28/27/27
f 27/26/26 32/32/32 29/29/29
f 27/26/26 30/30/30 32/32/32
f 28/27/27 33/33/33 30/30/30
f 30/30/30 34/34/34 32/32/32
f 30/30/30 33/33/33 34/34/34
f 28/27/27 31/31/31 33/33/33
f 31/31/31 35/35/35 33/33/33
f 34/34/34 37/36/36 36/37/37
f 35/35/35 38/38/38 33/33/33
f 33/33/33 37/36/36 34/34/34
f 38/38/38 37/36/36 33/33/33
f 35/35/35 39/39/39 38/38/38
f 38/38/38 40/40/40 37/36/36
f 39/39/39 40/40/40 38/38/38
f 39/39/39 41/41/41 40/40/40
f 40/40/40 42/42/42 37/36/36
f 39/39/39 43/43/43 41/41/41
f 40/40/40 44/44/44 42/42/42
f 43/43/43 45/45/45 41/41/41
f 41/41/41 44/44/44 40/40/40
f 44/44/44 46/46/46 42/42/42
f 41/41/41 45/45/45 44/44/44
f 44/44/44 49/47/47 46/46/46
f 44/44/44 50/48/48 49/47/47
f 45/45/45 51/49/49 44/44/44
f 43/43/43 51/49/49 45/45/45
f 46/46/46 49/47/47 48/50/50
f 51/49/49 50/48/48 44/44/44
f 43/43/43 47/51/51 51/49/49
f 49/47/47 52/52/52 48/50/50
f 47/51/51 53/53/53 51/49/49
f 50/48/48 53/53/53 55/54/54
f 51/49/49 53/53/53 50/48/48
f 49/47/47 55/54/54 52/52/52
f 50/48/48 55/54/54 49/47/47
f 47/51/51 54/55/55 53/53/53
f 54/55/55 57/56/56 53/53/53
f 52/52/52 58/57/57 56/58/58
f 55/54/54 58/57/57 52/52/52
f 53/53/53 59/59/59 55/54/54
f 55/54/54 60/60/60 58/57/57
f 59/59/59 60/60/60 55/54/54
f 53/53/53 61/61/61 59/59/59
f 53/53/53 57/56/56 61/61/61
f 59/59/59 61/61/61 60/60/60
f 57/56/56 62/62/62 65/63/63
f 58/57/57 60/60/60 63/64/64
f 61/61/61 64/65/65 60/60/60
f 57/56/56 65/63/63 61/61/61
f 60/60/60 66/66/66 63/64/64
f 65/63/63 64/65/65 61/61/61
f 62/62/62 67/67/67 65/63/63
f 64/65/65 68/68/68 60/60/60
f 68/68/68 66/66/66 60/60/60
f 67/67/67 64/65/65 65/63/63
f 68/68/68 69/69/69 66/66/66
f 66/66/66 69/69/69 70/70/70
f 64/65/65 71/71/71 68/68/68
f 68/68/68 71/71/71 69/69/69
f 64/65/65 75/72/72 71/71/71
f 67/67/67 72/73/73 75/72/72
f 67/67/67 75/72/72 64/65/65
f 71/71/71 73/74/74 69/69/69
f 69/69/69 74/75/75 70/70/70
f 73/74/74 74/75/75 69/69/69
f 71/71/71 75/72/72 73/74/74
f 72/73/73 76/76/76 75/72/72
f 76/76/76 77/77/77 75/72/72
f 74/75/75 78/78/78 79/79/79
f 73/74/74 78/78/78 74/75/75
f 75/72/72 81/80/80 73/74/74
f 73/74/74 81/80/80 78/78/78
f 75/72/72 77/77/77 81/80/80
f 76/76/76 80/81/81 77/77/77
