# Blender 5.0.1
# www.blender.org
mtllib leg_right.mtl
o NurbsPath015.001
v -0.058772 -0.014327 1.854375
v 0.102304 0.065952 1.997564
v 0.168430 -0.060227 1.890036
v 0.317627 1.628086 1.936054
v 0.105264 -0.028405 1.931849
v 0.284662 1.570444 1.896845
v -0.057583 0.025660 1.866016
v 0.141621 -0.000269 1.963034
v 0.329560 5.266325 2.060458
v 0.364103 5.378159 1.867307
v 0.324053 4.138757 2.038444
v 0.123203 5.637583 1.932554
v 0.319213 5.587090 1.957472
v 0.243235 5.523935 1.722534
v 0.201866 7.275338 1.182319
v 0.038506 7.459892 0.891531
v -0.026897 7.799234 0.820714
v 0.254283 6.792774 1.420209
v 0.236867 7.150352 1.068737
v 0.097155 7.612431 1.053802
v 0.078145 7.644699 0.719787
v 0.189141 7.669596 0.988184
v 0.210834 7.792925 0.738996
v 0.185322 7.672690 0.708099
v 0.158902 7.830549 0.807369
v 0.099869 7.829706 0.815801
v 0.156295 7.827139 0.779283
v 0.154059 2.202581 1.923273
v 0.252130 2.116785 1.839230
v 0.282143 2.276999 1.969020
v 0.380213 2.191205 1.884975
v 0.260631 7.581794 0.585318
v 0.035208 7.577440 0.611035
v 0.179730 7.493541 0.624077
v 0.181588 7.478654 0.616176
v 0.125181 7.268702 0.977656
v 0.311431 6.996162 0.970031
v 0.209545 7.050016 0.810304
v 0.213946 7.022028 0.826589
v 0.293192 6.324247 0.783996
v 0.141497 6.229647 0.908885
v 0.184283 6.351227 0.693872
v 0.067207 6.219816 0.784874
v 0.179047 6.138926 0.686349
v 0.300237 5.949432 1.017943
v 0.201168 5.859664 0.991285
v 0.268859 5.237745 1.826844
v 0.273622 5.272991 1.808020
v 0.398380 5.014411 2.135964
v 0.262768 5.373921 2.041834
v 0.197986 4.956445 2.180526
v 0.285407 4.948020 1.972925
v 0.296357 4.970632 1.986414
v 0.246133 3.974552 1.617525
v 0.341884 4.065233 1.708715
v 0.130200 3.957736 1.680433
v 0.247862 3.964576 1.610709
v 0.260607 3.917973 1.826564
v 0.243312 2.564918 1.563980
v 0.355848 2.595660 1.672212
v 0.241289 2.731138 1.554273
v 0.175048 2.616847 1.752597
v 0.146852 2.513858 1.608236
v 0.277271 2.110355 1.831372
v 0.277897 2.091798 1.811346
v 0.220278 2.275979 1.975616
vn -0.2188 -0.6861 0.6938
vn -0.2800 -0.7060 0.6505
vn -0.2194 -0.7262 0.6515
vn -0.3872 -0.3514 -0.8524
vn 0.1465 -0.0238 -0.9889
vn 0.3643 0.0481 -0.9300
vn 0.4357 -0.0342 0.8995
vn -0.4370 0.0687 0.8968
vn -0.4210 0.0173 0.9069
vn 0.8207 -0.1669 -0.5465
vn 0.9951 -0.0230 0.0965
vn -0.8027 0.0885 0.5898
vn 0.9704 0.1089 0.2155
vn -0.2955 -0.6103 -0.7350
vn 0.2486 0.4129 0.8762
vn -0.6590 -0.4365 -0.6125
vn -0.8076 0.4417 0.3908
vn 0.9946 0.0913 0.0498
vn 0.8161 -0.1909 -0.5455
vn -0.0363 0.5386 0.8418
vn 0.9740 0.1638 0.1565
vn -0.4514 -0.4961 -0.7417
vn 0.9359 0.3247 0.1367
vn 0.7212 -0.3466 -0.5998
vn 0.2238 0.6998 0.6783
vn -0.0218 0.7382 0.6742
vn 0.6755 0.6340 0.3764
vn 0.0974 -0.6374 0.7643
vn -0.4765 0.6112 0.6320
vn -0.5049 0.4597 0.7306
vn 0.5737 0.7398 0.3515
vn -0.5792 -0.6456 -0.4977
vn 0.7851 -0.1299 -0.6056
vn 0.1750 -0.4018 -0.8988
vn 0.8358 0.0129 0.5489
vn -0.8526 0.0591 -0.5192
vn 0.9655 -0.1778 -0.1903
vn 0.6208 -0.0920 -0.7785
vn -0.2859 0.3970 0.8722
vn -0.9587 -0.0717 -0.2753
vn -0.7442 -0.2990 -0.5973
vn 0.9799 -0.0104 -0.1994
vn 0.6265 -0.5206 -0.5801
vn -0.3942 -0.6836 -0.6142
vn 0.2492 -0.7177 -0.6502
vn -0.0368 0.6830 0.7295
vn -0.6498 -0.0523 0.7583
vn 0.8602 0.0427 0.5081
vn 0.8259 -0.0076 -0.5638
vn -0.9142 0.0115 -0.4050
vn -0.4873 0.1834 -0.8537
vn -0.9660 0.0594 -0.2515
vn 0.9410 0.0903 -0.3261
vn 0.6812 0.0904 -0.7265
vn 0.0925 -0.1649 0.9820
vn -0.3425 -0.1731 -0.9234
vn -0.7894 -0.2737 -0.5494
vn 0.9959 -0.0640 -0.0645
vn 0.6915 -0.0354 -0.7215
vn -0.5564 0.1597 0.8154
vn 0.9793 -0.0870 0.1829
vn -0.9312 -0.3302 -0.1546
vn -0.1562 -0.3111 0.9375
vt 0.186659 0.000000
vt 0.600280 0.000000
vt 0.594826 0.000000
vt -0.000000 0.605994
vt 0.000541 0.040349
vt 0.000000 0.137729
vt 0.000541 1.000000
vt 0.004063 1.001652
vt 0.000002 1.003537
vt 0.004590 0.147001
vt 0.002149 0.000000
vt 0.004819 0.883848
vt 0.004742 0.002851
vt 0.004632 0.397470
vt 0.019977 1.000000
vt 0.025073 0.546677
vt 0.032403 0.717025
vt 0.014473 0.008773
vt 0.019223 0.225278
vt 0.025114 0.876052
vt 0.026337 0.004910
vt 0.031879 0.435568
vt 0.033372 0.096695
vt 0.032656 0.253500
vt 0.032351 1.000000
vt 0.032212 0.916667
vt 0.033019 0.000000
vt 0.499937 0.000000
vt 0.500003 0.000000
vt 0.772720 0.000000
vt 0.227265 0.000000
vt 0.786543 0.754502
vt 0.799757 0.566856
vt 0.786542 0.189898
vt 0.788877 0.952886
vt 0.806946 0.003474
vt 0.788967 0.021881
vt 0.807475 0.336475
vt 0.805600 0.991710
vt 0.830243 0.219964
vt 0.829960 0.000000
vt 0.835192 0.524729
vt 0.834127 0.777853
vt 0.835252 0.986139
vt 0.845827 0.161959
vt 0.845678 0.000000
vt 0.875525 0.993456
vt 0.873836 0.011001
vt 0.877775 0.473663
vt 0.897603 0.603794
vt 0.895648 0.264578
vt 0.896945 0.006584
vt 0.898278 1.002352
vt 0.949078 1.000000
vt 0.949248 0.791204
vt 0.945890 0.127218
vt 0.949521 0.000048
vt 0.949348 0.458220
vt 0.989181 1.000000
vt 0.990379 0.849210
vt 0.988983 0.225783
vt 0.985563 0.000000
vt 0.989343 0.584178
vt 1.000003 0.002268
vt 0.999999 1.001138
vt 1.000005 0.542154
s 1
usemtl Material.002
f 3/1/1 2/2/2 1/3/3
f 7/4/4 6/5/5 5/6/6
f 4/7/7 9/8/8 8/9/9
f 6/5/5 10/10/10 11/11/11
f 7/4/4 12/12/12 10/10/10
f 7/4/4 10/10/10 6/5/5
f 8/9/9 12/12/12 7/4/4
f 8/9/9 9/8/8 12/12/12
f 10/10/10 13/13/13 11/11/11
f 12/12/12 14/14/14 10/10/10
f 9/8/8 15/15/15 12/12/12
f 12/12/12 16/16/16 14/14/14
f 12/12/12 17/17/17 16/16/16
f 10/10/10 18/18/18 13/13/13
f 14/14/14 19/19/19 10/10/10
f 16/16/16 19/19/19 14/14/14
f 15/15/15 20/20/20 12/12/12
f 20/20/20 17/17/17 12/12/12
f 10/10/10 19/19/19 18/18/18
f 19/19/19 22/21/21 18/18/18
f 16/16/16 21/22/22 19/19/19
f 19/19/19 23/23/23 22/21/21
f 19/19/19 24/24/24 23/23/23
f 21/22/22 24/24/24 19/19/19
f 15/15/15 25/25/25 20/20/20
f 25/25/25 26/26/26 20/20/20
f 20/20/20 26/26/26 17/17/17
f 22/21/21 23/23/23 27/27/27
f 16/16/16 17/17/17 21/22/22
f 29/28/28 30/29/28 28/30/28
f 31/31/28 30/29/28 29/28/28
f 33/32/29 36/33/30 32/34/31
f 33/32/29 34/35/32 36/33/30
f 32/34/31 39/36/33 35/37/34
f 36/33/30 37/38/35 32/34/31
f 32/34/31 37/38/35 39/36/33
f 34/35/32 38/39/36 36/33/30
f 37/38/35 40/40/37 39/36/33
f 40/40/37 42/41/38 39/36/33
f 37/38/35 41/42/39 40/40/37
f 36/33/30 41/42/39 37/38/35
f 36/33/30 43/43/40 41/42/39
f 38/39/36 43/43/40 36/33/30
f 44/44/41 43/43/40 38/39/36
f 40/40/37 45/45/42 46/46/43
f 40/40/37 46/46/43 42/41/38
f 41/42/39 45/45/42 40/40/37
f 44/44/41 47/47/44 43/43/40
f 45/45/42 48/48/45 46/46/43
f 43/43/40 50/49/46 41/42/39
f 41/42/39 50/49/46 45/45/42
f 43/43/40 51/50/47 50/49/46
f 47/47/44 51/50/47 43/43/40
f 45/45/42 50/49/46 49/51/48
f 45/45/42 49/51/48 48/48/45
f 49/51/48 53/52/49 48/48/45
f 47/47/44 52/53/50 51/50/47
f 50/49/46 51/50/47 49/51/48
f 54/54/51 56/55/52 52/53/50
f 49/51/48 55/56/53 57/57/54
f 49/51/48 57/57/54 53/52/49
f 49/51/48 58/58/55 55/56/53
f 51/50/47 58/58/55 49/51/48
f 56/55/52 58/58/55 51/50/47
f 52/53/50 56/55/52 51/50/47
f 54/54/51 59/59/56 63/60/57
f 54/54/51 63/60/57 56/55/52
f 57/57/54 60/61/58 61/62/59
f 55/56/53 60/61/58 57/57/54
f 58/58/55 60/61/58 55/56/53
f 58/58/55 62/63/60 60/61/58
f 56/55/52 62/63/60 58/58/55
f 56/55/52 63/60/57 62/63/60
f 60/61/58 65/64/61 61/62/59
f 59/59/56 64/65/62 63/60/57
f 60/61/58 66/66/63 65/64/61
f 62/63/60 66/66/63 60/61/58
f 63/60/57 66/66/63 62/63/60
f 63/60/57 64/65/62 66/66/63
